<?xml version="1.0" encoding="UTF-8"?>
<!-- Created with Inkscape (http://www.inkscape.org/) -->
<svg width="512" height="512" version="1.1" viewBox="0 0 512 512" xml:space="preserve" xmlns="http://www.w3.org/2000/svg"><g fill="#ff802c"><path d="m108.27 44.445c-26.128 35.989-59.407 66.171-95.801 91.426 9.5783 34.645 32.213 63.09 48.764 94.408-9.0883 12.874-23.203 23.444-33.779 35.855 1.5647 9.8848-0.1914 21.754 4.7207 30.215 14.746-12.734 30.338-27.115 45.74-39.486 5.7831 7.234 11.18 16.608 16.861 24.82 7.4743 0.69964 16.473 1.6629 23.713-1.627-0.63916-10.246 0.22238-20.817-0.875-30.877-7.3828-2.7419-7.5724-10.851-1.7207-15.531 18.376-24.091 22.544-53.316 23.504-82.85 9.6016-1.6006 20.326-0.049 30.352-0.45899 13.678 1.3637 39.465 3.186 40.871 8.7363 3.3278 18.254 0.70975 37.229-3.7656 54.959-5.9291 21.301-15.908 46.278-38.766 53.479-12.286-2.1456-23.938-8.8322-36.195-11.516 0.0652 8.1169-0.35775 16.282 0.72265 24.354 6.6571 1.9461 13.815 0.0169 21.342 0.49805 14.61-1.397 31.288 0.71095 44.578-2.6426-0.58934-4.282-10.207-3.5036-14.008-6.207 1.3411-7.0273 11.482-10.715 14.715-17.736 19.087-27.277 22.8-59.321 22.453-92.441 0.12326-6.8809 25.692 0.76115 36.953 3.8828 9.0738 1.6756 20.915 6.4138 26.281 9.6914 11.154 5.167 22.879 13.654 31.061 23.98 9.5432 10.122 12.82 23.273 14.875 36.576-0.38796 6.2781 3.4206 9.0341 8.5723 7.3555 3.2434-9.9905 0.70129-22.138 2.5059-32.926 18.723-3.1386 38.828-1.2706 58.088-1.7441 6.1429 1.9435 19.784-3.8677 21.232 3.5215 4.3329 7.0089 3.9543 19.064 10.785 24.217 10.897-14.255 21.721-31.733 31.182-47.146 3.8466-8.3314 11.206-18.002 10.283-26.111-37.261-12.132-74.458-24.026-111.43-36.277-69.118-22.127-137.53-44.803-206.67-67.236-15.574-4.797-31.027-11.924-47.141-15.16zm12.305 106.18c4.318-0.15318 6.9994 0.26367 6.9453 1.2871-0.65146 12.781-2.4122 26.467-4.7598 39.324-4.4841 15.622-7.2094 35.739-22.713 44.439-7.871-4.754-15.278-7.7979-22.691-15.521-16.313-13.061-15.784-35.746-10.182-53.828 12.76-9.6606 40.446-15.242 53.4-15.701zm149.31 18.65c-0.46632 3.6e-4 -0.93668 0.0577-0.0117 0.16992 0.9403-0.11362 0.47803-0.17028 0.0117-0.16992zm2.5957 0.86523c-0.46631 3.6e-4 -0.93668 0.0577-0.0117 0.16992 0.94029-0.11362 0.47803-0.17028 0.0117-0.16992zm114.29 43.602c-10.703 0.98305-5.5173 10.602-5.6797 16.291 1.9754 5.6637-2.0199 18.888 7.248 17.092 9.6484-0.38668 19.339-0.3032 29.002-0.51953 3.6376-10.285-3.0989-21.038-5.582-30.561-3.9518-4.209-17.27-0.59957-24.988-2.3027zm-24.775 1.2578c-3.5807 0.12391-7.1047 0.89966-9.2285 2.5469-0.2231 5.8427-4.6333 21.334 6.0996 18.781 2.9198-0.87498 6.0503-0.86555 9.0859-0.84765 6.7027 0.67344 3.6922-12.08 3.6113-19.117-2.3506-0.9604-5.9877-1.4872-9.5684-1.3633zm124.15 42.518c-0.98272 0.12406-2.0893 0.4176-3.334 0.90821-2.5664 9.674 1.0648 22.509-0.10156 33.16-16.591 0.50946-36.264-13.738-52.172-1.4961-5.6563 3.5546-10.185 18.185-16.928 9.6719-2.606-7.2081-9.9778-10.056-16.871-13.174-18.292-8.7324-42.416-1.0471-49.541 18.691-13.698 4.9804-28.573 4.1683-42.889 3.5215-7.77-0.79766-3.9058 11.583-6.6562 16.176-16.636 1.5508-34.179 1.9746-51.182 2.252-5.1352 0.84428-7.827-1.0796-9.5918-6.293-13.929-0.76673-27.904-0.37877-41.852-0.6875-9.4898 2.3589-9.572-12.019-14.318-16.434-12.067-10.913-35.987-13.759-44.988 3.2188-3.0769 5.2962-3.4354 12.45-10.164 11.256-5.5826-8.0143-11.715-15.842-20.398-19.615-13.934-8.7418-32.126 0.60208-36.426 15.721-2.796 10.025 0.39173 23.283 8.5957 30.172 6.8233 4.6964 4.3198 1.7119 11.857 4.293 7.1146-0.80868 17.564 4.2542 22.369-1.752 4.2702-2.845 7.6393-16.528 12.795-11.949 3.5113 6.9284 7.8216 14.622 12.58 21.76h15.568v19.365h-3.7969c2.462 4.2604 4.901 8.5293 7.3184 12.822v-32.188h4.4473c9.6284 0.038 19.26-0.094 28.887 0.10937 4.4008 0.17672 8.8955 0.19703 13.143 1.502 4.3337 1.5806 8.5576 3.7684 11.863 7.041 4.2115 4.1263 6.3837 9.8609 7.4219 15.562 0.63053 5.4039 0.67178 10.856 0.82422 16.289 0.19726 11.425 0.22486 22.856-0.0664 34.279-0.23632 5.9988-0.4174 12.071-1.9043 17.918-0.39346 1.5982-1.0168 3.1137-1.7461 4.5781 3.1431-2.3319 6.3214-4.646 9.5644-6.9356 0-29.448-1e-5 -58.896 0-88.344 0-0.66667-1e-5 -1.3333 0-2h25.859v72.389c1.5265-1.1789 3.0365-2.3813 4.5488-3.5801v-24.566h29.014c4.6544-4.1216 9.3429-8.196 13.965-12.363v-31.879h30.277c0.27168 1.3997 0.5428 2.7995 0.81446 4.1992 4.5184-3.8995 9.065-7.7588 13.678-11.525 2.261-4.6703 8.6831-15.422 13.836-7.123 6.147 9.2581 21.381 6.6944 25.621 6.2441 9.0844-1.7942 14.905-9.0741 19.479-15.572 0.70334-7.8844 9.1335-7.707 14.717-5.0918 4.9291 4.9923 8.8449 13.63 15.863 17.848 5.9935 2.618 14.949 0.64664 22.367-1.0762 16.799-3.5133 16.845-23.697 16.604-37.377 7.1708-2.3152 16.204-2.3226 23.281-4.4902-2.1144-5.5332 4.9652-11.379-1.9883-11.777-4.818-4.3842-3.3055-13.888-3.6094-20.332 1.0147-6.7305 0.24427-14.195-6.6348-13.326zm-38.387 49.004c5.2866-0.1713 10.505 2.327 12.469 7.5644 6.6536 9.4159-3.5492 19.098-12.902 19.926-7.4347-1.7973-14.089-10.911-12.447-19.041 2.2395-5.4369 7.5942-8.2779 12.881-8.4492zm-289.41 2.1973c3.8334-0.0707 7.6362 1.2625 10.162 4.1309 8.416 7.9381 0.60633 22.679-10.168 23.23-6.8518 0.15766-14.231-8.6442-13.637-15.932 0.78061-7.2964 7.2535-11.312 13.643-11.43zm-65.455 0.36132c6.9175-0.69161 13.958 3.338 14.205 11.66 3.5036 9.2847-4.7829 14.882-12.736 16.293-7.1977-1.7457-17.474-11.916-12.293-21.518 2.5669-3.9054 6.6737-6.0206 10.824-6.4356zm287.72 0.49805c7.8951 0.31144 15.3 5.3464 13.295 14.641-0.41182 8.6911-10.606 9.0164-15.096 12.527-6.3272-4.0106-14.325-10.658-13.312-19.105 2.5352-5.691 8.9726-8.3047 15.113-8.0625z" stroke-width=".28841"/><text x="8.4374447" y="476.75848" xml:space="preserve"><tspan x="8.4374447" y="476.75848" font-family="sans-serif" font-size="80px" font-weight="bold" style="font-variant-caps:normal;font-variant-east-asian:normal;font-variant-ligatures:normal;font-variant-numeric:normal"/></text><text font-family="sans-serif" font-size="80px" font-weight="bold" style="font-variant-caps:normal;font-variant-east-asian:normal;font-variant-ligatures:normal;font-variant-numeric:normal;shape-inside:url(#rect792);white-space:pre" xml:space="preserve"/></g><g transform="translate(-218.34 -150.96)"><text x="283.33868" y="225.55368" fill="#ff802c" font-family="sans-serif" font-size="80px" font-weight="bold" xml:space="preserve"><tspan x="283.33868" y="225.55368"/></text></g><text x="345.83832" y="42.772682" fill="#ff802c" font-family="sans-serif" font-size="80px" font-weight="bold" style="font-variant-caps:normal;font-variant-east-asian:normal;font-variant-ligatures:normal;font-variant-numeric:normal" xml:space="preserve"><tspan/></text><path d="m30.168 358.46h18.416c25.628 0 30.091 0.29376 33.818 1.9737 10.124 4.5637 10.437 17.973 9.9819 29.738-0.46362 11.98-4.5322 18.78-11.206 20.721l-5.6002 1.6284s6.9074-0.0859 10.581 2.3475c6.3261 4.1904 6.2248 12.708 6.2248 12.708v39.395h-20.751l0.6393-35.604s0.14069-7.1533-1.9139-10.601c-2.4393-4.0929-18.685-3.2195-18.685-3.2195v49.424h-21.505zm36.589 44.132c4.6539-2.8309 5.2093-6.618 5.2448-13.084 0.0387-7.0484-0.13443-11.748-4.6435-14.168-3.8345-2.0575-15.686-2.4895-15.686-2.4895v32.6s10.952-0.34599 15.084-2.8592zm35.192-44.132h48.554v15.366h-25.743v28.514h19.009v16.158h-19.009v33.211h25.743v15.263h-48.554zm56.076 54.256v-54.256h21.148c19.679 0 21.479 0.79504 25.9 2.8277 8.4153 3.8686 12.546 9.2388 14.615 19 0.64702 3.0526 1.0676 15.709 1.0676 32.128 0 31.045-0.89016 37.579-6.039 44.33-6.4746 8.4888-12.825 10.199-37.92 10.214l-18.772 0.0113zm30.38 38.495c4.8535-2.2114 4.9628-3.4182 5.2696-36.233 0.18666-19.965-0.0734-31.944-0.74778-34.448-1.2745-4.7331-3.2773-6.7038-7.2911-6.7038h-2.7486v77.938c3.0759 0.31413 4.7541-0.22013 5.5178-0.55332zm42.052-92.751h21.861v108.51h-21.861zm73.387 0h26.63l12.759 65.74 13.933-65.74h24.96v108.57h-18.365v-68.375l-13.248 68.375h-14.103l-14.548-68.336v68.336h-18.016zm86.119 54.365v-54.365h22.827l-0.24545 54.097-0.24548 54.475h-22.336zm60.657 21.571 10.998 32.636h20.215l-20.629-54.356 18.46-54.216h-17.99l-10.996 29.854s-9.4931-23.794-11.112-29.854h-17.99l18.46 54.206-20.629 54.356h20.215m-178.76-64.32h33.266v21.883h-33.266zm178.7-44.242 0.0559 108.56h-3e-5" stroke-width=".95047"/><path d="m15.633 15.147c13.241-13.241 43.745-11.903 43.745-11.903h393.24s30.123-1.3386 43.364 11.903c13.239 13.239 12.814 44.265 12.814 44.265v393.18s0.42537 30.701-12.814 43.94c-13.241 13.241-43.364 12.228-43.364 12.228h-393.24s-30.503 1.0128-43.745-12.228c-13.239-13.239-12.433-43.94-12.433-43.94v-393.18s-0.80572-31.026 12.433-44.265z" fill="none" stroke="#000" stroke-linejoin="round" stroke-width="6.1465"/><g fill="#fff" fill-rule="evenodd"><path d="m43.357 504.29c-23.539-3.6128-32.054-12.519-35.94-37.591-1.1657-7.5211-1.1737-413.93-0.0082652-421.53 1.9936-12.998 5.8232-22.7 10.921-27.665 5.1257-4.9926 13.782-8.3266 25.931-9.9874 9.4908-1.2974 413.85-1.2974 423.34 0 17.045 2.3301 26.079 7.5381 31.231 18.005 2.6056 5.2927 5.2076 15.849 6.0381 24.496 0.91826 9.5609 0.94729 402.15 0.0304 411.61-1.3139 13.552-5.4278 25.872-10.522 31.511-3.0427 3.3679-8.049 6.2824-14.466 8.4214-11.765 3.9221 2.8875 3.6859-224.66 3.6216-172.41-0.0487-207.37-0.19555-211.89-0.89014zm8.7317-61.756v-24.767l6.4735 0.28548c7.6274 0.33635 10.437 1.3166 12.004 4.1876 1.0084 1.848 1.0812 3.686 0.93236 23.533l-0.16146 21.528h21.098v-21.603c0-23.001-0.17106-24.59-3.0438-28.267-1.8775-2.4036-5.3083-4.2688-8.6801-4.7193l-2.9922-0.39972 3.0293-0.98755c5.9779-1.9488 8.9677-5.4122 10.68-12.372 2.0216-8.218 1.7438-22.006-0.5885-29.206-1.298-4.0069-5.9158-8.9425-9.5449-10.202-1.8501-0.64198-8.0996-0.8936-26.948-1.085l-24.539-0.24916v109.09h22.281zm98.759 16.939v-7.8284h-25.894v-33.12h19.27v-16.259h-19.27v-28.303h25.894v-15.657h-49.379v109h49.379zm49.516 6.3964c6.0258-1.3506 9.1684-2.9704 12.495-6.4403 3.3693-3.5142 5.2598-7.0171 6.4492-11.95 2.439-10.116 2.2285-63.081-0.28197-70.936-2.4281-7.5969-5.7758-11.502-12.899-15.047-2.1248-1.0575-5.6088-2.2059-7.7422-2.552-2.1334-0.34615-12.212-0.63139-22.396-0.6339l-18.517-5e-3v109.16l19.421-0.34527c14.02-0.24925 20.547-0.59776 23.471-1.2532zm52.254-53.066v-54.498h-22.281v109h22.281zm69.397 21.703 0.15568-32.795 13.873 65.288 7.3654 0.16908c4.051 0.093 7.3741 0.093 7.3846 0 0.0106-0.093 2.8354-14.531 6.2773-32.085l6.2581-31.916 0.0912 64.133h19.27v-109h-25.809l-0.67067 3.1615c-0.36887 1.7388-3.4366 16.182-6.8173 32.095l-6.1466 28.934-2.2276-11.47c-1.2252-6.3087-4.035-20.752-6.2439-32.095l-4.0162-20.625h-26.955v109h18.055zm90.785-21.703v-54.498h-22.883v109h22.883zm32.547 38.54c4.539-13.544 5.3267-15.454 5.837-14.151 0.32447 0.82801 2.7236 7.9413 5.3313 15.807l4.7413 14.302h10.397c5.7185 0 10.397-0.16537 10.397-0.36748s-4.607-12.503-10.238-27.335l-10.238-26.967 9.0335-26.464c4.9684-14.555 9.0335-26.779 9.0335-27.163 0-0.49981-2.6144-0.69768-9.1834-0.69502l-9.1833 4e-3 -5.0612 13.869c-2.7836 7.6277-5.2466 13.983-5.4733 14.123-0.3639 0.2249-7.4135-17.515-9.9898-25.139l-0.96661-2.8603h-9.2773c-5.1025 0-9.2773 0.0686-9.2773 0.15235 0 0.0838 4.0648 12.065 9.0328 26.625s9.0328 26.93 9.0328 27.488c0 0.55874-4.4712 12.796-9.9361 27.195s-9.9361 26.491-9.9361 26.871c0 0.50107 2.8552 0.64675 10.338 0.52749l10.338-0.16477zm-219.07-1.945 2.2582-1.527v-90.77h25.292v36.196c0 39.938-0.29161 37.206 3.6403 34.105l1.7127-1.3506 0.0666-24.388h28.643l14.065-12.345 0.0474-32.217h30.109l9e-3 1.3549c0.0233 3.4221 0.87484 3.1299 7.7123-2.6464 4.447-3.7568 7.4467-6.8404 9.0039-9.2558 2.5951-4.0251 5.6705-6.9162 7.3572-6.9162 0.60892 0 1.8753 0.85478 2.8142 1.8995 5.0369 5.6047 8.2325 7.2745 15.256 7.9717 5.3848 0.53458 13.3-0.4974 17.063-2.2248 5.6107-2.5751 13.625-11.054 14.936-15.801 0.77904-2.8214 3.4904-4.4858 7.3123-4.4888 4.8161-4e-3 6.4868 1.1108 11.418 7.6172 4.9746 6.564 8.2662 10.02 10.994 11.544 4.216 2.3555 22.362 0.31319 28.303-3.1855 7.1602-4.2166 10.284-11.909 10.952-26.969l0.36725-8.2809 2.1688-0.5797c1.1928-0.31883 5.5561-1.1229 9.6961-1.7869 12.131-1.9454 11.163-1.5609 11.214-4.4544 0.0243-1.3812 0.25739-4.0551 0.51809-5.942 0.46216-3.345 0.43547-3.4404-1.0681-3.8178-4.0069-1.0057-4.8676-4.174-4.9088-18.07-0.0296-9.9994-0.17301-11.68-1.1196-13.125-1.5109-2.3059-3.4268-3.0341-6.6937-2.5442-2.3289 0.34924-2.8193 0.66309-3.1754 2.0325-0.59725 2.2968-0.57546 10.851 0.0568 22.314l0.54361 9.8553-3.8556-0.44594c-2.1206-0.24527-8.7333-1.6448-14.695-3.11-22.179-5.451-30.168-3.9277-39.205 7.4753-2.1795 2.7502-4.787 5.4266-5.7946 5.9476-1.7063 0.88233-1.9382 0.868-3.3806-0.20895-0.85178-0.63594-2.0454-2.0844-2.6524-3.2187-1.8365-3.4319-6.2666-7.0175-12.096-9.7897-9.5625-4.548-11.117-4.9192-20.576-4.9141-7.3006 4e-3 -8.9553 0.19265-12.345 1.4079-8.6402 3.0977-16.051 9.3507-19.45 16.411-1.9219 3.9922-1.9387 4.0074-5.5408 4.9899-7.8157 2.1319-10.569 2.4062-25.593 2.5497-8.4457 0.0807-15.699 0.16542-16.118 0.18831-1.3141 0.0717-2.4902 3.7435-3.0603 9.5542-0.3021 3.0791-0.69542 5.7446-0.87403 5.9232-0.63709 0.63709-12.486 1.3815-33.694 2.1168-21.19 0.7347-21.555 0.72748-23.143-0.45827-0.88748-0.6626-2.133-2.2056-2.7678-3.4288l-1.1542-2.2241-17.254-0.15055c-9.4896-0.0828-19.557-0.16078-22.372-0.17329-2.8152-0.0125-5.7213-0.23177-6.4579-0.48725-1.8308-0.63499-3.3843-2.9742-5.9177-8.9105-2.4757-5.8012-5.0162-8.7074-9.8388-11.255-10.277-5.4284-21.258-6.1127-29.994-1.8689-4.7647 2.3148-7.9655 5.9394-11.101 12.571-2.8698 6.0692-4.365 7.8654-6.5473 7.8654-1.201 0-2.0744-0.66127-3.5053-2.6538-6.3913-8.8998-12.092-13.975-19.884-17.7-12.741-6.0922-27.716-0.37472-33.976 12.972-1.6313 3.4779-1.9432 4.9078-2.144 9.8308-0.12928 3.1685 0.08296 7.2928 0.47162 9.165 0.99292 4.7829 4.0029 10.485 7.2481 13.73 4.0794 4.0798 8.3417 5.3268 22.679 6.6352 7.8513 0.71652 7.9461 0.71018 10.839-0.72412 2.3824-1.181 3.4918-2.3323 6.0366-6.2644 6.5926-10.187 7.2798-10.402 11.055-3.4626 1.3964 2.5668 4.2835 7.58 6.4158 11.14l3.8769 6.4735h15.58v18.668h-1.8066c-0.99361 0-1.8066 0.16848-1.8066 0.3744s1.6936 3.3445 3.7637 6.9746l3.7637 6.6003 0.32044-32.618 16.4 0.0155c25.543 0.0242 31.443 1.0131 38.671 6.4812 6.8696 5.1974 9.8189 12.086 10.59 24.735 0.69275 11.358 0.67065 39.055-0.039 48.86-0.51691 7.1417-0.96879 9.7603-2.802 16.237-0.41074 1.4512-0.36207 1.4401 2.2433-0.51009 1.4647-1.0964 3.6793-2.6806 4.9213-3.5205zm67.897-35.692v-11.442h-33.722v22.883h33.722zm-244.49-132.17c20.001-17.513 27.43-23.795 28.136-23.795 0.2926 0 4.1356 5.3913 8.54 11.981 6.9049 10.33 8.2588 12.031 9.8286 12.345 3.71 0.74201 15.694 0.37772 19.111-0.58092l3.3681-0.94505-0.18545-13.959c-0.22687-17.076-0.26085-17.324-2.5639-18.685-2.2917-1.3538-3.6067-3.8842-3.6067-6.9404 0-1.8365 0.48977-2.9969 2.1096-4.9979 15.05-18.592 23.28-43.984 24.79-76.478 0.35719-7.6901 0.46586-8.2562 1.6458-8.5729 0.69484-0.18653 7.4128-0.34286 14.929-0.34738 24.86-0.0149 49.96 3.5793 53.648 7.6823 2.2405 2.4928 2.9663 21.024 1.3164 33.61-2.7733 21.156-9.6351 42.111-18.048 55.116-5.4933 8.4918-14.188 16.133-21.747 19.112-2.8611 1.1276-3.0556 1.1298-7.1564 0.0803-2.3184-0.59332-8.2801-2.5652-13.248-4.382-10.015-3.6624-16.812-5.8442-18.206-5.8442-0.79919 0-0.8827 1.5498-0.65138 12.089 0.21162 9.6419 0.44052 12.2 1.1307 12.637 1.0723 0.67851 12.496 0.66747 37.9-0.0367 18.451-0.5114 26.736-1.2187 27.911-2.383 0.84175-0.83384-1.7705-2.9255-4.5448-3.6392-6.6327-1.7062-8.914-2.4885-8.914-3.0568 0-1.6427 2.2085-4.4052 7.07-8.8434 5.8211-5.3143 10.113-11.524 15.709-22.725 9.0393-18.096 13.955-42.717 13.955-69.898 0-10.429 0.0373-10.494 5.9986-10.494 4.6138 0 12.366 1.4639 23.509 4.4396 4.14 1.1056 9.8918 2.628 12.782 3.3833 2.8898 0.75523 5.1282 1.5771 4.9742 1.8263-0.15404 0.24924 0.89274 0.62902 2.3262 0.84398 3.4367 0.51536 17.951 7.6766 24.781 12.227 11.087 7.3864 21.855 18.468 26.37 27.137 3.8626 7.4173 6.8827 18.014 7.9597 27.928 0.51585 4.7487 2.2027 6.5211 6.2062 6.5211h2.9566l0.73431-3.4626c0.40388-1.9044 0.88563-9.063 1.0706-15.908 0.18493-6.845 0.54155-12.778 0.79248-13.184 0.95702-1.5485 7.2114-1.9121 36.109-2.0994 16.395-0.10623 31.252-0.35147 33.016-0.54499 4.5391-0.49785 7.7135 0.4919 9.1783 2.8617 0.65492 1.0596 2.0152 4.6364 3.0228 7.9484s2.3745 7.5404 3.0375 9.3963c1.2051 3.3732 4.4367 7.9801 5.3615 7.6433 0.6367-0.23184 7.6414-9.8956 13.006-17.943 8.9324-13.4 18.356-28.996 23.105-38.239 4.3313-8.4298 4.9887-10.125 5.2553-13.556l0.30479-3.9208-21.9-7.117c-12.045-3.9143-39.65-12.904-61.343-19.976-21.694-7.0725-48.792-15.876-60.219-19.563-58.762-18.962-182.69-59.591-194.75-63.85-7.585-2.678-16.798-5.6566-20.474-6.619l-6.6834-1.7499-1.5055 1.9145c-14.849 18.883-22.153 27.285-34.408 39.575-15.357 15.402-33.48 30.819-51.811 44.075-4.5785 3.311-8.3245 6.3747-8.3245 6.8083 0 1.2128 4.4641 13.859 6.9152 19.59 4.1476 9.6973 12.171 24.442 24.384 44.812 6.7348 11.233 13.349 22.511 14.699 25.061l2.4537 4.6376-2.3631 2.9405c-1.2997 1.6173-8.814 9.4668-16.698 17.443-8.7001 8.8018-14.334 14.956-14.333 15.657 0.0081 4.3996 1.3446 20.843 1.8548 22.819 1.1955 4.6321 2.4947 7.5275 3.1883 7.1053 0.37156-0.22615 8.1276-6.9362 17.236-14.911zm359.93-34.633 7.9558-2e-3 0.6912-2.5593c1.0925-4.0453 0.18792-9.549-3.2307-19.656-2.9174-8.625-3.2664-9.3236-5.0297-10.069-2.7063-1.1435-24.794-1.2429-27.132-0.12209-2.9499 1.4138-3.508 3.5585-2.6339 10.121 0.41933 3.1484 0.96625 8.7316 1.2154 12.407 0.45653 6.736 0.63383 7.4426 2.3851 9.5052 0.88776 1.0456 1.6148 1.104 9.3928 0.75494 4.6368-0.2081 12.011-0.37937 16.386-0.38058zm-39.71-11.515c0.75115-0.28002 1.661-1.2592 2.0219-2.1759 0.81415-2.0682 0.27369-16.312-0.65414-17.24-0.91314-0.91314-11.892-1.2467-14.777-0.44895-3.8738 1.0709-3.959 1.2165-4.6584 7.9608-0.73121 7.0504-0.35055 10.278 1.421 12.05 1.1295 1.1295 1.6895 1.1829 8.2465 0.78743 3.8691-0.23338 7.6493-0.65344 8.4004-0.93346z"/><path d="m93.341 231.42c-8.2504-4.8223-11.375-7.1823-17.465-13.192-5.773-5.6966-8.7505-10.944-10.597-18.676-1.6732-7.0054-1.398-18.748 0.63796-27.22l1.3499-5.6168 3.3923-2.17c10.521-6.7301 33.906-12.976 48.876-13.053l7.5273-0.0391-0.17871 3.9142c-0.4961 10.866-3.151 30.348-5.2931 38.841-5.2516 20.822-8.9121 29.418-15.272 35.864-2.1702 2.1997-4.4878 4.2738-5.1502 4.609-0.98946 0.50071-2.3861-0.0812-7.8267-3.2613z"/><path d="m91.019 335.35c-6.9068-3.6435-11.349-11.854-9.4787-17.521 2.8602-8.6666 16.562-11.196 22.49-4.1519 1.8172 2.1597 2.7092 4.8463 3.2476 9.7816 0.31158 2.8564 0.15077 3.7817-1.019 5.863-1.5746 2.8016-4.4698 5.0187-8.3279 6.3774-3.3534 1.181-4.0804 1.1442-6.9115-0.34925z"/><path d="m155.44 335.11c-5.5364-1.9166-10.273-8.2917-10.268-13.82 5e-3 -5.4762 3.8027-10.088 9.6444-11.71 4.7655-1.3231 8.8273-0.40478 12.371 2.7972 4.1909 3.7862 5.3367 7.4158 3.9005 12.356-2.1454 7.3799-9.7458 12.42-15.648 10.377z"/><path d="m374.85 333.41c-11.6-9.1067-11.961-18.168-0.89503-22.483 0.99717-0.3888 3.7245-0.72753 6.0607-0.75273 5.447-0.0588 9.7987 1.9222 12.202 5.5546 2.684 4.056 1.9366 11.285-1.4871 14.383-1.0326 0.93448-11.274 5.9107-12.163 5.9099-0.21543-2.1e-4 -1.8887-1.1756-3.7184-2.612z"/><path d="m443.41 331.87c-6.3949-4.0555-10.102-12.984-7.4768-18.008 2.2121-4.2343 6.7722-6.7447 12.252-6.7447 4.7801 0 8.285 1.8216 10.829 5.628 4.3566 6.5189 4.0204 10.621-1.2957 15.806-3.0563 2.9812-7.2816 5.0621-10.279 5.0621-0.70417 0-2.5172-0.78445-4.0291-1.7432z"/><g stroke-linejoin="round" stroke-miterlimit="3.9"><path d="m51.851 389.18v-16.148l3.7966 0.30639c13.227 1.0675 15.626 3.0708 16.067 13.417 0.57723 13.562-2.4288 16.806-16.934 18.276l-2.9288 0.29681z" stroke-width="1.5677"/><g stroke-width=".19596"><path d="m189.78 446.58c-0.8326-1.5945-2.8479-5.1868-4.2306-7.5411l-0.63104-1.0744v-17.163c0-11.406 0.0182-17.163 0.0542-17.163s0.0542 5.7123 0.0542 17.028v17.028l1.6871 2.9987c1.9663 3.4951 2.4909 4.3922 2.8402 4.8565 0.70808 0.94148 0.95248 0.26587 1.192-3.2951 0.38636-5.7442 0.67414-18.035 0.76928-32.854 0.0306-4.7683 0.0496-5.7627 0.10984-5.7627 0.0913 0 0.0948 2.0128 0.0191 10.793-0.17737 20.575-0.36258 26.49-0.95338 30.448-0.13803 0.92476-0.47466 2.3129-0.56015 2.3098-0.018-6.5e-4 -0.17587-0.27522-0.35077-0.61017z"/><path d="m183.89 451.82c-0.16407-0.011-0.45085-0.0345-0.63729-0.0522l-0.33899-0.0322v-48.1h1.9526v34.363l0.49395 0.83872c0.96931 1.6458 2.6469 4.6073 3.5169 6.2082 0.48631 0.89491 0.96971 1.7832 1.0742 1.9739 0.22348 0.40791 0.21551 0.41499 0.44257-0.39363 0.43742-1.5578 0.74998-4.5749 0.92504-8.9294 0.18367-4.5684 0.32435-14.149 0.41556-28.298l0.0371-5.7627h1.9353l-3.3e-4 2.2915c-6.6e-4 4.8409-0.17043 20.829-0.27227 25.641-0.25016 11.819-0.7497 15.678-2.2924 17.708-0.51916 0.68329-1.4622 1.3388-2.696 1.8742-0.6284 0.27266-1.309 0.45859-2.0626 0.56346-0.58918 0.082-1.9736 0.14081-2.4933 0.10593z"/><path d="m189.72 446.39c-1.0102-1.8892-3.388-6.1072-4.4699-7.9292l-0.32985-0.55551 4e-3 -8.9577c2e-3 -5.0469 0.0242-8.9103 0.0504-8.8492 0.0256 0.0597 0.0483 4.0584 0.0504 8.8862l4e-3 8.7777 1.6085 2.8562c1.9312 3.4292 2.697 4.7222 3.0006 5.0664 0.41851 0.4745 0.65418 0.31663 0.83513-0.55943 0.50807-2.4597 0.89459-15.126 1.0657-34.922 0.03-3.4732 0.0697-6.3288 0.0882-6.3458 0.0444-0.0406-0.0193 13.65-0.0879 18.898-0.18025 13.786-0.34925 18.264-0.81889 21.695-0.151 1.1033-0.49382 2.6305-0.59047 2.6305-0.0219 0-0.20621-0.31119-0.4096-0.69153z"/><path d="m189.72 446.39c-0.95887-1.7928-2.8979-5.2395-4.1687-7.4099l-0.63099-1.0777 4e-3 -8.9562c2e-3 -5.0461 0.0242-8.9088 0.0504-8.8477 0.0256 0.0597 0.0483 4.0586 0.0504 8.8865l4e-3 8.7781 1.1204 1.988c2.5476 4.5203 3.1584 5.5581 3.4996 5.9456 0.40666 0.462 0.64656 0.29567 0.82286-0.57049 0.51115-2.5113 0.89396-15.05 1.0671-34.95 0.0301-3.4584 0.0665-6.2997 0.0808-6.3141 0.045-0.045 0.028 8.4614-0.0274 13.768-0.18708 17.905-0.35342 23.018-0.87232 26.816-0.095 0.69549-0.31454 1.8506-0.39847 2.0967-0.0144 0.0422-0.0527 0.1805-0.0852 0.30728s-0.0787 0.23051-0.10267 0.23051c-0.024 0-0.2101-0.31119-0.41352-0.69153z"/></g><g stroke-width=".78384"><path d="m183 412.88v-38.859h2.1422c4.1271 0 5.9348 1.3378 7.2836 5.3902 1.0092 3.032 1.0988 5.51 1.0684 29.539-0.0394 31.126-0.3583 36.886-2.2102 39.919-0.48175 0.78895-0.92002 1.1414-2.2842 1.8369-1.5664 0.79866-1.8434 0.86692-3.8439 0.94727l-2.1559 0.0866z"/><path d="m183 412.88v-38.859h2.1422c4.1271 0 5.9348 1.3378 7.2836 5.3902 1.0097 3.0337 1.0988 5.5035 1.0687 29.647-0.0386 31.064-0.35556 36.772-2.2106 39.81-0.48175 0.78895-0.92002 1.1414-2.2842 1.8369-1.5664 0.79866-1.8434 0.86692-3.8439 0.94727l-2.1559 0.0866z"/><path d="m51.742 389.12v-16.21l1.7898 0.13518c6.4825 0.48961 11.577 1.3584 13.425 2.2894 1.6943 0.85378 2.721 1.8615 3.5164 3.4515 1.1368 2.2723 1.3402 3.8517 1.315 10.208-0.01965 4.941-0.07184 5.7157-0.48835 7.2491-1.3727 5.0537-4.7678 7.3312-12.615 8.4622-1.2529 0.18059-3.3275 0.39481-4.6102 0.47605l-2.3322 0.14769z"/></g></g></g></svg>
